<svg version="1" xmlns="http://www.w3.org/2000/svg" width="1333.333" height="1333.333" viewBox="0 0 1000.000000 1000.000000"><path d="M739 265.3c-.7 1.2-4 7.4-7.3 13.7-3.3 6.3-6.3 11.9-6.7 12.5-.4.5-3.8 6.8-7.5 14-3.8 7.1-7.9 15-9.3 17.5-1.3 2.5-4.7 8.8-7.4 14-4.8 9.1-10 18.8-15.8 29.5-1.5 2.7-5.3 9.9-8.5 16-6.8 13-12.7 24.1-16.5 31-1.5 2.7-5.1 9.5-8 15-2.9 5.5-8.8 16.5-13 24.5-4.3 8-9.7 18.1-11.9 22.5-4.7 9-5.8 10.5-6.9 9-3.6-5.2-48.4-26.3-61.2-28.9-1.4-.3-4.1-1-6-1.5-5-1.6-22.3-4.8-30.5-5.8-8.8-1-39.8-1-48.5 0-6.2.7-14.9 2.1-19.7 3.2-1.3.3-3.3.7-4.5 1-23.5 5.1-54.3 18.5-75.4 32.9-6.1 4.2-9.3 5.9-10 5.1-.5-.5-2.1-3.5-3.6-6.5s-4.9-9.6-7.6-14.5c-2.6-5-8.1-15.3-12.1-23-4.1-7.7-8.6-16.3-10.1-19-1.5-2.8-5.1-9.5-8-15-2.9-5.5-7-13.2-9-17-2.1-3.9-6.3-12-9.5-18-3.2-6.1-7-13.3-8.5-16-1.5-2.8-5.3-10-8.5-16-3.2-6.1-7-13.3-8.5-16-3-5.6-11.9-22.3-20.9-39.5-3.3-6.3-6.4-11.5-7-11.5-.9 0-2.4 2.6-15.8 28.5-3.9 7.4-9.3 17.8-12.1 23-2.7 5.2-7.6 14.7-10.9 21-13.8 26.3-25.8 49.3-34.3 65.5-8.2 15.6-15.5 29.5-23.5 45-4.3 8.2-9.5 18.1-11.5 22-2.1 3.8-7.2 13.7-11.5 22-4.3 8.2-9.5 18.1-11.5 22-2.1 3.8-7.7 14.6-12.6 24-4.9 9.3-11 21-13.6 26-2.5 4.9-7.2 13.9-10.3 20-3.2 6-7.9 15-10.5 20-2.6 4.9-7.6 14.4-11 21-3.4 6.6-8.4 16-11 21-2.6 4.9-7.5 14.3-10.9 20.8-3.3 6.4-8.7 16.8-12 23C13.8 730.6 11 736.1 11 736.5c0 .5 479.8 0 480.4-.6.6-.7 6.7-12.1 15.6-29.4 10.9-21.1 20.2-38.9 26-50 5.1-9.7 13.7-26.2 24.4-46.8 3.7-7 8.8-16.9 11.5-22 2.6-5.1 8.5-16.4 13.1-25.2 4.5-8.8 10.6-20.5 13.5-26 8.6-16.4 18.1-34.6 21.3-41 5.5-10.7 4.6-10.4 14-3.5 20.5 15 46.3 41.4 58.1 59.5 1.4 2.2 2.9 4.2 3.2 4.5.7.6 7.3 11.1 11.3 18 10.7 18.2 22.8 47 28.2 66.8 5.2 19 7.5 29.7 8.9 41.2.3 2.5.8 5.6 1 7 1.1 6.3 2.4 24.8 2.4 35.1l.1 6.7h122.5c67.4 0 122.5-.2 122.5-.5 0-.4-10.3-20.2-14.1-26.9-1-1.8-4.1-7.6-7-13-2.8-5.5-6.6-12.6-8.4-15.9-1.8-3.3-5.6-10.5-8.5-16-2.9-5.5-6.5-12.3-8-15-1.5-2.8-5.5-10.4-9-17-3.4-6.6-6.6-12.5-7-13-.4-.6-3.8-6.9-7.5-14-3.7-7.2-8.2-15.7-10-19-1.8-3.3-6.6-12.3-10.7-20-4.2-7.7-10.1-19-13.3-25-3.2-6.1-7.1-13.5-8.8-16.5-1.6-3-5.2-9.8-7.9-15-2.8-5.2-5.8-10.9-6.8-12.5-.9-1.7-4.5-8.4-8-15s-7.9-14.9-9.8-18.5c-8.1-15-10.2-19.1-16.7-31.5-3.7-7.2-7.1-13.5-7.5-14-.4-.6-3.8-6.9-7.5-14-3.7-7.2-7.6-14.4-8.5-16-1-1.7-4.6-8.4-8-15-3.5-6.6-7.5-14.3-9-17-1.5-2.8-4.9-9.1-7.5-14-2.6-5-6.2-11.7-8-15-1.8-3.3-5.6-10.5-8.5-16-2.9-5.5-6.3-11.8-7.5-14-1.2-2.2-5.1-9.4-8.5-16-3.5-6.6-6.4-12.1-6.4-12.2-.1-.1-.8.8-1.6 2z"/></svg>