<svg xmlns="http://www.w3.org/2000/svg" viewBox="0 0 128 128"><defs><style>.cls-2{fill:#999}.cls-3{fill:#333}.cls-4{fill:#666}</style></defs><path fill="#fff" d="M0 0h128v128H0z"/><path d="M43.4 59.17c0-8.27 3.73-15.53 9.37-19.71l-9.48-17.89-20 38.24H43.4v-.64z" class="cls-2"/><path d="M84.31 59.17v.12h20.39L84 20.41 74.14 38.9c6.08 4.1 10.17 11.62 10.17 20.27zM52.77 39.46c-5.64 4.18-9.37 11.44-9.37 19.71v.62h19.87z" class="cls-3"/><path d="M74.14 38.9a18.26 18.26 0 00-21.37.56l10.51 20.31z" class="cls-2"/><path d="M43.6 69.77c.31.6.61 1.22.87 1.78v-5.12a1.66 1.66 0 01.13-.72c.3-.19.39-.19 1.22-.19V74a1.44 1.44 0 01-.69.26 2 2 0 01-.63-.09c-.34-.64-.74-1.32-1.15-2-.23-.39-.46-.8-.69-1.21l-.52-1c-.18-.39-.39-.8-.59-1.23-.08-.17-.17-.39-.25-.55 0 .78 0 1.57.06 2.13v3a1.52 1.52 0 01-.12.69c-.2.22-.41.23-1.24.23V66a1.06 1.06 0 01-.15-.24.59.59 0 010-.13 3 3 0 011-.15 1 1 0 01.51.17c.27.54.7 1.26 1.17 2.06.13.23.24.45.36.66l.34.57zM50.48 68.78a.91.91 0 01.15-.62c.18-.16.33-.16.9-.17h.34v4.74a2.91 2.91 0 00.14 1 2 2 0 01-.54.32.54.54 0 01-.19 0 .49.49 0 01-.46-.29 2.77 2.77 0 01-.77.41 2.57 2.57 0 01-.85.14c-1.58-.07-1.89-.85-1.92-2.25l.09-2.06v-1.71c.17-.2.51-.25 1.3-.25a4.55 4.55 0 01.12 1.31l-.13 2.6c0 1.11.32 1.34.86 1.34a1.25 1.25 0 001-.4zM51 65.3a1 1 0 01-.18.19L49.29 67c-.27-.06-.6-.32-.6-.56a.27.27 0 010-.11c.43-.6 1.26-1.71 1.51-1.71a.92.92 0 01.8.68zM57.3 68.43a1.62 1.62 0 01-.21.7h-.15a1.44 1.44 0 01-.43-.09 1.86 1.86 0 00-.69-.15h-.15c-.75.06-1.28.74-1.28 2.23 0 1.8.74 2.18 1.51 2.18a2.85 2.85 0 001.19-.3 2 2 0 01.12.5.89.89 0 01-.34.56 2.22 2.22 0 01-1.21.3c-1.44 0-2.69-.54-2.69-3.15a3.52 3.52 0 011-2.7 2.6 2.6 0 011.84-.64 2 2 0 011.51.56zM59.93 73.4v.56a1 1 0 01-.81.36 1 1 0 01-.52-.18.85.85 0 01-.37-.69v-6.63-1.44c.16-.37.62-.41 1.29-.41a4.84 4.84 0 01.09 1.26v6.66s-.1.58.32.51zM64.9 72.88a3.67 3.67 0 01.14.65c0 .27-.45.57-.85.67a4.36 4.36 0 01-1 .13 2.44 2.44 0 01-1.83-.63 3.34 3.34 0 01-.72-2.38c0-2.53 1.09-3.46 2.59-3.46a1.83 1.83 0 012 1.86 6 6 0 010 .62 5.36 5.36 0 01-.06.77 2.62 2.62 0 01-1 .35 15.61 15.61 0 01-1.68.08H62c0 1.3.57 1.71 1.38 1.71a3.08 3.08 0 001.52-.37zm-1.85-4.06c-.47.07-.93.61-1 1.78h1.62a.45.45 0 00.19 0 1.32 1.32 0 000-.39v-.27c-.06-.69-.3-1-.79-1zM68.49 74.35c-1.66 0-2.6-.95-2.6-3.23s1.1-3.26 2.64-3.26c1.71 0 2.56 1.09 2.56 3.18s-1.09 3.31-2.6 3.31zm0-1c.61 0 1.14-.58 1.14-2.3s-.45-2.23-1.17-2.23-1.15.61-1.15 2.22.53 2.34 1.21 2.34zM80 73.38v.58a1 1 0 01-.8.36 1 1 0 01-.79-.38 1.11 1.11 0 01-.31.21 1.86 1.86 0 01-1 .19c-1.36-.06-2.34-.79-2.34-3a3.94 3.94 0 01.88-2.65 2.41 2.41 0 011.79-.79 2.22 2.22 0 01.87.14v-1.42-1.23c.15-.35.6-.42 1.26-.42a2.65 2.65 0 01.12 1v6.88c-.01.04-.05.62.32.53zM78.33 69a1.19 1.19 0 00-.68-.19c-.69 0-1.41.62-1.41 2.32s.53 2.11 1.24 2.11a1.1 1.1 0 00.83-.34.32.32 0 000-.16v-.61zM85.09 72.88a2.84 2.84 0 01.13.65c0 .27-.44.57-.84.67a4.36 4.36 0 01-1 .13 2.47 2.47 0 01-1.84-.63 3.39 3.39 0 01-.71-2.38c0-2.53 1.09-3.46 2.59-3.46a1.83 1.83 0 012 1.86 6 6 0 010 .62 4.13 4.13 0 01-.07.77 2.51 2.51 0 01-1 .35 15.61 15.61 0 01-1.68.08h-.45c0 1.3.57 1.71 1.38 1.71a3.08 3.08 0 001.49-.37zm-1.85-4.06c-.47.07-.93.61-1 1.78h1.62a.45.45 0 00.19 0 1.32 1.32 0 000-.39v-.27c-.07-.69-.3-1-.79-1z" class="cls-3"/><path d="M20.63 78.41h4.16l3.08 9.82L31 78.41h4.16v13h-2.5V80.67l-3.49 10.7h-2.53l-3.49-10.7v10.7h-2.52zM38.16 78.41h7.65v2h-5.05v3.19h4.62v2h-4.62v3.64h5.09v2h-7.69zM48.48 78.41h4.16l3.09 9.82 3.09-9.82H63v13h-2.48V80.67L57 91.37h-2.5L51 80.67v10.7h-2.52zM65.79 82.14A5.88 5.88 0 0167 80a5.34 5.34 0 012-1.36 7.23 7.23 0 012.73-.49 7 7 0 012.71.5 5.33 5.33 0 012 1.37 5.9 5.9 0 011.23 2.11 8.86 8.86 0 010 5.39 6 6 0 01-1.23 2.14 5.44 5.44 0 01-2 1.4 6.84 6.84 0 01-2.72.5A7.1 7.1 0 0169 91.1a5.47 5.47 0 01-2-1.38 6.15 6.15 0 01-1.21-2.14 8.78 8.78 0 01-.41-2.73 8.61 8.61 0 01.41-2.71zm2.5 4.43a4.58 4.58 0 00.63 1.5 3.4 3.4 0 001.13 1.07 3.25 3.25 0 001.69.41 3.3 3.3 0 001.69-.41 3.47 3.47 0 001.12-1.07 4.58 4.58 0 00.63-1.5 7.63 7.63 0 00.2-1.72 6.78 6.78 0 00-.21-1.68 4.53 4.53 0 00-.65-1.49 3.44 3.44 0 00-1.13-1.05 3.62 3.62 0 00-3.31 0A3.54 3.54 0 0069 81.68a4.75 4.75 0 00-.65 1.49 6.78 6.78 0 00-.2 1.68 7.62 7.62 0 00.14 1.72zm3.32-11.67h2.54l-2.54 2.71h-1.55zM80.24 78.41h4.93a6.63 6.63 0 012 .37 3.15 3.15 0 011.45 1A3.7 3.7 0 0189 83a2.76 2.76 0 01-.53.91 2.92 2.92 0 01-.84.67 3.19 3.19 0 01-1.12.35 1.34 1.34 0 01.48.15 2 2 0 01.38.33 2.78 2.78 0 01.29.41 4.78 4.78 0 01.23.45l2.08 5.07H87l-1.56-4.05c-.1-.23-.2-.44-.29-.61a1.43 1.43 0 00-.34-.42 1.48 1.48 0 00-.49-.23 2.59 2.59 0 00-.68-.08h-.84v5.39h-2.6zm2.6 5.53H84.7a2.66 2.66 0 00.88-.25 1.58 1.58 0 00.64-.53 1.64 1.64 0 00.25-1 1.52 1.52 0 00-.25-.92 1.46 1.46 0 00-.64-.51 2.91 2.91 0 00-.88-.21H82.84zM91.59 78.41h2.6v13h-2.6zM100.69 78.41h2.93l5.09 13h-2.88l-1.11-3h-5.26l-1.13 3h-2.69zm1.43 2.6l-1.87 5.35H104z" class="cls-4"/><path d="M52.61 103.53v.57a1.07 1.07 0 01-.81.37 1 1 0 01-.78-.38 2.35 2.35 0 01-.31.21 1.92 1.92 0 01-1 .2c-1.35-.06-2.34-.79-2.34-3a3.92 3.92 0 01.88-2.65A2.44 2.44 0 0150 98a2.2 2.2 0 01.87.15v-1.38-1.23c.16-.36.6-.42 1.26-.42a2.62 2.62 0 01.12 1V103s-.04.62.36.53zm-1.7-4.34a1.25 1.25 0 00-.69-.2c-.69 0-1.4.63-1.4 2.33s.53 2.11 1.23 2.11a1.08 1.08 0 00.83-.34.38.38 0 000-.15v-.62zM56 104.49c-1.66 0-2.6-.95-2.6-3.22S54.44 98 56 98s2.56 1.1 2.56 3.19-1.11 3.3-2.56 3.3zm0-1c.61 0 1.14-.58 1.14-2.3S56.67 99 56 99s-1.15.61-1.15 2.23.45 2.3 1.15 2.3zM62.57 104v-1.55-2.5-2.73V96c.13-.32.48-.37 1.17-.37.22 0 .25.28.25.91V104.07c-.14.18-.48.22-1.17.22-.17.06-.25-.02-.25-.29zM65.42 104.19v-6.82-1.42l.18-.1a1.74 1.74 0 01.64-.16h3.33c-.05.73-.14.89-.39 1a2.91 2.91 0 01-.83.06h-1.54v2.65h2.44c0 .91-.23 1-.63 1h-1.81v3.78a1.93 1.93 0 01-.72.17 1.3 1.3 0 01-.67-.16zM75.86 104.05c.23.31-.76.34-.76.34h-.18c-.52 0-.79-.57-1-1a12.87 12.87 0 00-1.58-2.56h-.54v2.83a.83.83 0 01-.14.52c-.15.17-.42.17-1 .17h-.26v-7.02-1.21a2.54 2.54 0 010-.26.89.89 0 01.38-.13h.08a.74.74 0 01.18 0h1.58A2.19 2.19 0 0175 98.16a3.36 3.36 0 01-1.23 2.3 21.2 21.2 0 011.29 2.24 10.32 10.32 0 00.79 1.34zm-2.33-5.91c0-1-.48-1.51-1.17-1.51h-.56v3.18h.52a1.17 1.17 0 00.48-.06c.38-.12.73-.61.73-1.61zM80.35 96.08a1.2 1.2 0 01-.22.64.43.43 0 01-.24.08.61.61 0 01-.28-.07 2.26 2.26 0 00-1-.21c-.67 0-1.09.33-1.09 1v.16a1.63 1.63 0 00.44.85c.26.29.67.68 1 1 0 0 .05 0 .05.05.26.24.52.5.73.72a2.58 2.58 0 01.81 1.87 2.31 2.31 0 01-2.55 2.34 2.75 2.75 0 01-1.75-.47c-.14-.13-.2-.21-.2-.33a2.06 2.06 0 01.36-.89 2.53 2.53 0 001.56.59 1.11 1.11 0 001.17-1.22 1.9 1.9 0 00-.8-1.47c-.14-.17-.3-.32-.47-.49s-.1-.09-.16-.16l-.16-.15c-.31-.32-.6-.58-.81-.84a2.35 2.35 0 01-.59-1.52c0-1 .68-2 2.43-2a2.26 2.26 0 011.77.52z" class="cls-3"/></svg>
